<svg xmlns="http://www.w3.org/2000/svg" width="71.248" height="70.087" viewBox="0 0 71.248 70.087">
  <g id="Grupo_3461" data-name="Grupo 3461" transform="translate(-401 -198.913)">
    <path id="Trazado_7456" data-name="Trazado 7456" d="M438.265,83.924l-.462-.815c-1.859-3.254-6.047-10.692-10.46-17.085-1.394-2.208-2.908-4.184-4.188-5.929-2.092-2.906-4.766-6.508-4.766-7.672.12-4.649,0-15.807,0-19.176h2.8V28.366H385.959v4.881h3.725c0,3.37-.12,14.528,0,19.176,0,1.164-2.675,4.766-4.769,7.672-1.394,1.745-2.787,3.721-4.3,5.929-4.3,6.393-8.484,13.831-10.343,17.085l-.463.815a11.4,11.4,0,0,0,0,10.926,6.765,6.765,0,0,0,6.158,3.6h56.143a7.026,7.026,0,0,0,6.157-3.6,11.391,11.391,0,0,0,0-10.926Z" transform="translate(32.588 170.547)" fill="#727270"/>
    <path id="Trazado_7457" data-name="Trazado 7457" d="M434.07,91.725a2.767,2.767,0,0,1-2.674,1.628H375.253a2.77,2.77,0,0,1-2.675-1.628,7.186,7.186,0,0,1,0-6.857l.469-.813c1.857-3.139,5.927-10.579,10.227-16.854,1.4-2.092,2.908-4.069,4.184-5.811,3.721-5.115,5.695-7.787,5.578-10.114-.116-4.186-.116-13.948,0-18.132h20.572c0,4.3.122,13.946,0,18.132-.112,2.326,1.865,5,5.583,10.114,1.282,1.743,2.674,3.72,4.179,5.811,4.19,6.275,8.37,13.715,10.116,16.854l.465.813a7.192,7.192,0,0,1,.119,6.857Z" transform="translate(33.3 171.579)" fill="#fff"/>
    <path id="Trazado_7458" data-name="Trazado 7458" d="M400.816,48.169c0-1.51.812-2.79,1.858-2.79s1.859,1.279,1.859,2.79-.815,2.791-1.859,2.791-1.858-1.279-1.858-2.791Z" transform="translate(39.587 174.222)" fill="#006f3c"/>
    <path id="Trazado_7459" data-name="Trazado 7459" d="M397.015,53.428c-1.857,0-3.371-2.323-3.371-5.113,0-2.905,1.514-5.23,3.371-5.23,1.977,0,3.487,2.325,3.487,5.23,0,2.791-1.51,5.113-3.487,5.113Z" transform="translate(38.039 173.726)" fill="#006f3c"/>
    <path id="Trazado_7460" data-name="Trazado 7460" d="M399.537,55.843c0,1.977-1.045,3.488-2.326,3.488s-2.321-1.51-2.321-3.488c0-1.859,1.045-3.486,2.321-3.486s2.326,1.627,2.326,3.486Z" transform="translate(38.307 175.729)" fill="#006f3c"/>
    <path id="Trazado_7461" data-name="Trazado 7461" d="M403.327,60c0,4.881-5,4.881-5,0,0-2.093,1.045-3.72,2.438-3.72s2.56,1.627,2.56,3.72Z" transform="translate(39.05 176.576)" fill="#006f3c"/>
    <path id="Trazado_7462" data-name="Trazado 7462" d="M393.921,56.675c0,1.511-.812,2.673-1.858,2.673s-1.857-1.161-1.857-2.673c0-1.627.812-2.788,1.857-2.788s1.858,1.161,1.858,2.788Z" transform="translate(37.295 176.06)" fill="#006f3c"/>
    <path id="Trazado_7463" data-name="Trazado 7463" d="M430.967,76.71c-1.049-1.863-3.492-6.279-6.047-10-.7-1.046-1.273-1.858-1.978-2.787h-40.1c-.7.929-1.278,1.741-1.974,2.787-2.56,3.72-5,8.136-6.047,10l-.349.463a6.908,6.908,0,0,0,0,6.391,4.125,4.125,0,0,0,3.6,2.211h49.515a4.157,4.157,0,0,0,3.717-2.211,6.887,6.887,0,0,0,0-6.391Z" transform="translate(33.729 178.228)" fill="#006f3c"/>
    <path id="Trazado_7464" data-name="Trazado 7464" d="M402.872,53.337c0,1.046-.581,1.858-1.161,1.858-.7,0-1.277-.812-1.277-1.858,0-.93.576-1.746,1.277-1.746.58,0,1.161.816,1.161,1.746Z" transform="translate(39.505 175.564)" fill="#006f3c"/>
  </g>
</svg>
