<svg id="calidad" xmlns="http://www.w3.org/2000/svg" width="52.573" height="70.459" viewBox="0 0 52.573 70.459">
  <path id="Trazado_7353" data-name="Trazado 7353" d="M101.884,92.635a1.376,1.376,0,1,0-1.376-1.376A1.376,1.376,0,0,0,101.884,92.635Zm0,0" transform="translate(-86.745 -77.514)" fill="#8cbd28"/>
  <path id="Trazado_7354" data-name="Trazado 7354" d="M52.238,24.969a4.23,4.23,0,0,0-.929-5.316L46.648,15.7a1.478,1.478,0,0,1-.493-.868L45.1,8.848A4.178,4.178,0,0,0,40.988,5.37H34.9a1.4,1.4,0,0,1-.9-.327L29.347,1l-.012-.01a4.144,4.144,0,0,0-5.377,0L23.947,1,19.3,5.034a1.4,1.4,0,0,1-.906.336H12.3a4.178,4.178,0,0,0-4.11,3.476L7.137,14.831a1.463,1.463,0,0,1-.491.864L1.984,19.654a4.229,4.229,0,0,0-.928,5.315L4.1,30.3a1.486,1.486,0,0,1,.173.989L3.214,37.357a4.208,4.208,0,0,0,2.678,4.68l5.717,2.107a1.385,1.385,0,0,1,.32.168L1.331,62.9a1.377,1.377,0,0,0,1.551,2.011l6.19-1.658,1.658,6.189a1.376,1.376,0,0,0,2.524.326L24.193,50.587l1.972-.727a1.4,1.4,0,0,1,.962,0l2.121.782L40.985,69.8a1.377,1.377,0,0,0,2.5-.363l1.659-6.189,6.189,1.658a1.377,1.377,0,0,0,1.53-2.048l-11.4-18.612a1.338,1.338,0,0,1,.221-.1L47.4,42.037a4.2,4.2,0,0,0,2.68-4.681l-1.057-6.065A1.486,1.486,0,0,1,49.2,30.3ZM12.523,65.494l-1.148-4.286a1.376,1.376,0,0,0-1.686-.973L5.355,61.4l8.238-14.447,1.8,3.162a4.15,4.15,0,0,0,4.792,1.941Zm36.194-4.137-4.188-1.122a1.376,1.376,0,0,0-1.686.973l-1.185,4.425L33.385,52.125A4.143,4.143,0,0,0,37.9,50.111l1.9-3.324ZM46.8,28.939a4.244,4.244,0,0,0-.493,2.825l1.057,6.065a1.454,1.454,0,0,1-.919,1.625L40.734,41.56a4.181,4.181,0,0,0-2.077,1.681,1.328,1.328,0,0,0-.144.234l-3.008,5.273a1.407,1.407,0,0,1-1.708.635l-5.719-2.107a4.155,4.155,0,0,0-2.863,0c-.111.04-2.55.939-5.717,2.107a1.406,1.406,0,0,1-1.709-.636l-2.831-4.962a1.379,1.379,0,0,0-.41-.686,4.181,4.181,0,0,0-1.987-1.54L6.844,39.454a1.457,1.457,0,0,1-.918-1.625l1.057-6.064a4.24,4.24,0,0,0-.493-2.825L3.447,23.6a1.474,1.474,0,0,1,.32-1.854l4.661-3.958a4.223,4.223,0,0,0,1.421-2.487l1.057-5.984a1.432,1.432,0,0,1,1.4-1.2H18.39a4.164,4.164,0,0,0,2.7-1l4.654-4.035a1.4,1.4,0,0,1,1.808,0l4.664,4.045a4.156,4.156,0,0,0,2.689.991h6.084a1.432,1.432,0,0,1,1.4,1.2l1.056,5.982a4.231,4.231,0,0,0,1.422,2.487l4.66,3.957a1.475,1.475,0,0,1,.321,1.855Zm0,0" transform="translate(-0.499 -0.001)" fill="#8cbd28"/>
  <path id="Trazado_7355" data-name="Trazado 7355" d="M78.4,59.746A17.788,17.788,0,0,0,71.553,61.1a1.376,1.376,0,0,0,1.054,2.543,15.131,15.131,0,1,1-7.423,6.6,1.376,1.376,0,1,0-2.4-1.346A17.892,17.892,0,1,0,78.4,59.746Zm0,0" transform="translate(-52.25 -51.524)" fill="#8cbd28"/>
  <path id="Trazado_7356" data-name="Trazado 7356" d="M127.267,131.269l-.805,4.691a1.376,1.376,0,0,0,2,1.451l4.213-2.215,4.213,2.215a1.376,1.376,0,0,0,2-1.451l-.805-4.691,3.408-3.322a1.376,1.376,0,0,0-.763-2.348l-4.71-.684-2.106-4.268a1.376,1.376,0,0,0-2.468,0l-2.106,4.268-4.71.684a1.376,1.376,0,0,0-.763,2.348Zm3.176-3.734a1.377,1.377,0,0,0,1.036-.753l1.192-2.416,1.192,2.416a1.375,1.375,0,0,0,1.036.753l2.667.388-1.93,1.881a1.377,1.377,0,0,0-.4,1.218l.456,2.656-2.385-1.254a1.376,1.376,0,0,0-1.28,0l-2.385,1.254.456-2.656a1.376,1.376,0,0,0-.4-1.218l-1.93-1.881Zm0,0" transform="translate(-106.525 -103.382)" fill="#8cbd28"/>
</svg>
