<svg id="cliente" xmlns="http://www.w3.org/2000/svg" width="64.679" height="64.679" viewBox="0 0 64.679 64.679">
  <path id="Trazado_7419" data-name="Trazado 7419" d="M171.18,20.368A10.184,10.184,0,1,0,161,10.184,10.2,10.2,0,0,0,171.18,20.368Zm0-18.3a8.12,8.12,0,1,1-8.12,8.12A8.129,8.129,0,0,1,171.18,2.064Z" transform="translate(-138.84)" fill="#8cbd28"/>
  <path id="Trazado_7420" data-name="Trazado 7420" d="M124.58,165.073A15.576,15.576,0,0,1,140.1,179.6H116.249a1.032,1.032,0,1,0,0,2.064h24.919a1.032,1.032,0,0,0,1.032-1.032,17.62,17.62,0,0,0-35.241,0,1.032,1.032,0,0,0,1.032,1.032h4.128a1.032,1.032,0,1,0,0-2.064h-3.062a15.576,15.576,0,0,1,15.522-14.524Z" transform="translate(-92.241 -140.576)" fill="#8cbd28"/>
  <path id="Trazado_7421" data-name="Trazado 7421" d="M19.321,336.374l-5.662-.95-2.653-5.091a1.032,1.032,0,0,0-1.831,0l-2.653,5.091-5.662.95a1.032,1.032,0,0,0-.566,1.741l4.022,4.1-.846,5.678a1.032,1.032,0,0,0,1.481,1.076l5.139-2.559,5.139,2.559a1.032,1.032,0,0,0,1.481-1.076l-.846-5.678,4.022-4.1a1.032,1.032,0,0,0-.565-1.741Zm-5.29,4.758a1.032,1.032,0,0,0-.284.875l.63,4.228-3.826-1.906a1.032,1.032,0,0,0-.92,0L5.8,346.236l.63-4.228a1.031,1.031,0,0,0-.284-.875l-2.995-3.05,4.216-.708a1.032,1.032,0,0,0,.744-.541l1.976-3.791,1.976,3.791a1.032,1.032,0,0,0,.744.541l4.216.708-2.995,3.05Z" transform="translate(0.001 -284.396)" fill="#8cbd28"/>
  <path id="Trazado_7422" data-name="Trazado 7422" d="M180.988,336.374l-5.662-.95-2.653-5.091a1.032,1.032,0,0,0-1.831,0l-2.653,5.091-5.662.95a1.032,1.032,0,0,0-.566,1.741l4.022,4.1-.846,5.678a1.032,1.032,0,0,0,1.481,1.076l5.139-2.559,5.139,2.559a1.032,1.032,0,0,0,1.481-1.076l-.846-5.678,4.022-4.1a1.032,1.032,0,0,0-.566-1.741Zm-5.29,4.758a1.032,1.032,0,0,0-.284.875l.63,4.228-3.826-1.906a1.033,1.033,0,0,0-.92,0l-3.826,1.906.63-4.228a1.032,1.032,0,0,0-.284-.875l-2.995-3.05,4.216-.708a1.032,1.032,0,0,0,.744-.541l1.976-3.791,1.976,3.791a1.032,1.032,0,0,0,.744.541l4.216.708Z" transform="translate(-139.418 -284.396)" fill="#8cbd28"/>
  <path id="Trazado_7423" data-name="Trazado 7423" d="M343.465,337.073a1.032,1.032,0,0,0-.811-.7l-5.662-.95-2.653-5.091a1.032,1.032,0,0,0-1.831,0l-2.653,5.091-5.662.95a1.032,1.032,0,0,0-.566,1.741l4.022,4.1-.846,5.678a1.032,1.032,0,0,0,1.481,1.076l5.139-2.559,5.139,2.559a1.032,1.032,0,0,0,1.481-1.076l-.846-5.678,4.022-4.1A1.031,1.031,0,0,0,343.465,337.073Zm-6.1,4.059a1.032,1.032,0,0,0-.284.875l.63,4.228-3.827-1.906a1.032,1.032,0,0,0-.92,0l-3.826,1.906.63-4.228a1.031,1.031,0,0,0-.284-.875l-2.995-3.05,4.216-.708a1.032,1.032,0,0,0,.744-.541l1.976-3.791,1.976,3.791a1.033,1.033,0,0,0,.745.541l4.216.708Z" transform="translate(-278.836 -284.396)" fill="#8cbd28"/>
  <path id="Trazado_7424" data-name="Trazado 7424" d="M211.284,87.189a4.679,4.679,0,0,0,3.531-1.613,1.032,1.032,0,0,0-1.558-1.354,2.607,2.607,0,0,1-3.947,0,1.032,1.032,0,0,0-1.558,1.354A4.68,4.68,0,0,0,211.284,87.189Z" transform="translate(-178.944 -72.325)" fill="#8cbd28"/>
</svg>
