<svg id="deal" xmlns="http://www.w3.org/2000/svg" width="70.459" height="59.88" viewBox="0 0 70.459 59.88">
  <g id="Grupo_549" data-name="Grupo 549" transform="translate(0 3.047)">
    <g id="Grupo_548" data-name="Grupo 548">
      <path id="Trazado_7454" data-name="Trazado 7454" d="M70.235,92.121a1.034,1.034,0,0,0-1.453-.168l-2.029,1.609-16.4-21.527,9.373-6.016a1.034,1.034,0,0,0-1.117-1.741L48.3,70.9a1.045,1.045,0,0,0-.264,1.5l1.877,2.465-1.335,1.022-5.3-1.751a1.056,1.056,0,0,0-.324-.052H30.817a1.034,1.034,0,0,0-1,.783l-.683,2.731-1.723-.726a1.035,1.035,0,0,0-.521-.074l-4.794.561-1.629-.946,1.549-2.683a1.045,1.045,0,0,0-.378-1.413L1.551,60.719A1.034,1.034,0,0,0,.517,62.51L16.256,71.6,2.673,95.125l-1.121-.647A1.034,1.034,0,1,0,.517,96.268l5.465,3.155a1.044,1.044,0,0,0,1.413-.378l.791-1.37,2.231,1.19a4.343,4.343,0,0,0,5.2,6.127,4.241,4.241,0,0,0,.854,2.552,4.377,4.377,0,0,0,4.8,1.52,4.337,4.337,0,0,0,3.652,4.224,4.391,4.391,0,0,0,.7.056,4.3,4.3,0,0,0,1.315-.206,4.343,4.343,0,0,0,3.655,4.219,4.391,4.391,0,0,0,.7.056,4.31,4.31,0,0,0,2.537-.826l2.413-1.746a4.327,4.327,0,0,0,1.247-1.4l4.244,2.313a4.343,4.343,0,0,0,6.395-4.3,4.339,4.339,0,0,0,5.1-4.756,4.343,4.343,0,0,0,5.107-4.753,4.284,4.284,0,0,0,.782.073,4.361,4.361,0,0,0,1.233-.179,4.344,4.344,0,0,0,2.94-5.393,4.4,4.4,0,0,0-.307-.766L64.789,94.4l.958,1.258a1.045,1.045,0,0,0,1.465.184l2.855-2.264A1.034,1.034,0,0,0,70.235,92.121ZM6.121,97.115l-1.657-.957L18.047,72.631l1.657.957Zm9.484,5.59a2.275,2.275,0,1,1-2.667-3.686l7.315-5.293a2.275,2.275,0,0,1,2.668,3.686Zm5.667,4.069a2.286,2.286,0,0,1-3.15-.474,2.352,2.352,0,0,1,.543-3.256l5.468-3.956a3.724,3.724,0,0,1,.606-.367,2.261,2.261,0,0,1,2.685.714,2.3,2.3,0,0,1-.47,3.229Zm5.667,4.069a2.275,2.275,0,0,1-2.669-3.685l3.9-2.819.152-.11a2.264,2.264,0,0,1,3.138.457,2.3,2.3,0,0,1-.471,3.229Zm9,.808a2.256,2.256,0,0,1-.918,1.515l-2.413,1.746a2.275,2.275,0,1,1-2.667-3.686l2.26-1.635.153-.111a2.288,2.288,0,0,1,3.138.457A2.256,2.256,0,0,1,35.936,111.651ZM61.113,98.765a2.3,2.3,0,0,1-3.087.909L46.07,93.157a1.034,1.034,0,0,0-.99,1.816L55.1,100.434a2.275,2.275,0,1,1-2.178,4L42.756,98.888a1.034,1.034,0,0,0-.99,1.816L50,105.19a2.275,2.275,0,0,1-2.179,3.994l-8.617-4.7a1.034,1.034,0,0,0-.99,1.816l6.68,3.641a2.275,2.275,0,1,1-2.177,4l-4.685-2.554a4.356,4.356,0,0,0-4.128-4.409c.019-.092.037-.184.051-.278a4.356,4.356,0,0,0-4.084-4.973c.019-.092.037-.184.051-.278a4.356,4.356,0,0,0-4.084-4.973c.019-.092.037-.184.051-.278a4.343,4.343,0,0,0-6.844-4.145l-7.217,5.221-2.6-1.389L19.429,78.2l1.922,1.116a1.036,1.036,0,0,0,.639.133l4.866-.57,1.767.744-1.016,4.063a1.041,1.041,0,0,0-.031.251v8.825a5.446,5.446,0,1,0,10.893,0V84.235l.188-.3L60.2,95.678A2.3,2.3,0,0,1,61.113,98.765Zm.493-4.646a4.424,4.424,0,0,0-.412-.256L39.756,82.177l.8-1.273a1.034,1.034,0,0,0-1.754-1.1L36.559,83.39a1.036,1.036,0,0,0-.157.548v8.825a3.378,3.378,0,1,1-6.756,0v-8.7l1.979-7.918h11.16l5.661,1.87a1.042,1.042,0,0,0,.953-.161l1.765-1.351L63.535,92.749Z" transform="translate(0 -60.58)" fill="#8cbd28"/>
    </g>
  </g>
  <g id="Grupo_551" data-name="Grupo 551" transform="translate(62.597)">
    <g id="Grupo_550" data-name="Grupo 550">
      <path id="Trazado_7455" data-name="Trazado 7455" d="M462.568,38.915a1.034,1.034,0,0,0-1.429-.312l-5.794,3.719a1.034,1.034,0,1,0,1.117,1.741l5.794-3.719A1.035,1.035,0,0,0,462.568,38.915Z" transform="translate(-454.869 -38.439)" fill="#8cbd28"/>
    </g>
  </g>
</svg>
