<svg xmlns="http://www.w3.org/2000/svg" width="22.086" height="22.086" viewBox="0 0 22.086 22.086">
  <path id="whatsapp-brands" d="M18.778,35.209A10.948,10.948,0,0,0,1.553,48.417L0,54.086l5.8-1.523a10.911,10.911,0,0,0,5.231,1.331h0a10.875,10.875,0,0,0,7.74-18.684ZM11.038,52.05A9.08,9.08,0,0,1,6.4,50.783l-.33-.2-3.441.9.917-3.357-.217-.345a9.114,9.114,0,1,1,16.9-4.836A9.2,9.2,0,0,1,11.038,52.05Zm4.989-6.813c-.271-.138-1.617-.8-1.868-.887s-.434-.138-.616.138-.7.887-.868,1.075-.32.207-.592.069a7.444,7.444,0,0,1-3.722-3.254c-.281-.483.281-.449.8-1.494a.507.507,0,0,0-.025-.478c-.069-.138-.616-1.484-.843-2.031s-.449-.458-.616-.468-.34-.01-.523-.01a1.013,1.013,0,0,0-.73.34,3.073,3.073,0,0,0-.956,2.283,5.357,5.357,0,0,0,1.114,2.83A12.22,12.22,0,0,0,11.26,47.48a5.351,5.351,0,0,0,3.283.685,2.8,2.8,0,0,0,1.844-1.3,2.287,2.287,0,0,0,.158-1.3C16.481,45.439,16.3,45.37,16.027,45.237Z" transform="translate(0 -32)" fill="#fff"/>
</svg>
