<svg xmlns="http://www.w3.org/2000/svg" width="66" height="66" viewBox="0 0 66 66">
  <g id="Grupo_3503" data-name="Grupo 3503" transform="translate(-104 -1397)">
    <circle id="Elipse_46" data-name="Elipse 46" cx="33" cy="33" r="33" transform="translate(104 1397)" fill="#8cbd28"/>
    <g id="Grupo_3495" data-name="Grupo 3495" transform="translate(122.064 1411.051)">
      <path id="Trazado_4098" data-name="Trazado 4098" d="M555.34,733.459a13.179,13.179,0,1,0-13.179,13.179A13.2,13.2,0,0,0,555.34,733.459Zm-1.36,0a11.88,11.88,0,0,1-.134,1.777,20.5,20.5,0,0,1-5.923,2.872,13.165,13.165,0,0,0,.294-1.742,17.286,17.286,0,0,0-1.126-7.6,17.242,17.242,0,0,0,4.766-2.059A11.844,11.844,0,0,1,553.98,733.459Zm-6.44,2.841a12.288,12.288,0,0,1-.365,2.009,17.1,17.1,0,0,1-9.951-.636c-.085-.031-.165-.064-.249-.1a12.343,12.343,0,0,1-.193-1.274,16.87,16.87,0,0,1,1.281-7.756,17.846,17.846,0,0,0,4.98.731,16.1,16.1,0,0,0,3.362-.352A16.614,16.614,0,0,1,547.541,736.3Zm3.756-10.338c.052.064.1.13.153.195a16.577,16.577,0,0,1-4.6,1.966,28.781,28.781,0,0,0-3.667-6.434A11.78,11.78,0,0,1,551.3,725.962Zm-9.136-4.321.118,0a29.015,29.015,0,0,1,3.875,6.638,16.4,16.4,0,0,1-7.832-.364,29.213,29.213,0,0,1,3.721-6.273Zm-1.017.048a28.982,28.982,0,0,0-3.5,6.021,19.408,19.408,0,0,1-4.359-2.052A11.771,11.771,0,0,1,541.144,721.689Zm-10.8,11.77a11.839,11.839,0,0,1,2.508-7.275,20.1,20.1,0,0,0,4.541,2.156,17.556,17.556,0,0,0-1.287,8.026c.031.309.075.614.126.916a22.352,22.352,0,0,1-5.885-3.658C530.346,733.57,530.343,733.515,530.343,733.459Zm.054,1.1a22.836,22.836,0,0,0,6,3.519,13.861,13.861,0,0,0,4.325,7.1A11.837,11.837,0,0,1,530.4,734.562Zm11.765,10.715c-.1,0-.207,0-.311-.007a13.692,13.692,0,0,1-4.684-6.9,18.465,18.465,0,0,0,6.089,1.057,17.6,17.6,0,0,0,3.7-.4,13.931,13.931,0,0,1-4.482,6.241C542.369,745.273,542.266,745.278,542.161,745.278Zm1.444-.091a14.067,14.067,0,0,0,4.121-6.342,20.479,20.479,0,0,0,5.934-2.664A11.846,11.846,0,0,1,543.606,745.187Z" transform="translate(-525.469 -719.214)" fill="#fff"/>
      <path id="Trazado_4099" data-name="Trazado 4099" d="M532.791,749.368h-3.918a2.835,2.835,0,0,0,0,5.67H541.8a2.835,2.835,0,1,0,0-5.67h-3.917v-.654a2.525,2.525,0,0,0-.224-1.04,24.42,24.42,0,0,0,4.64-1.146.85.85,0,1,0-.558-1.606,19.422,19.422,0,0,1-7.911,1.19c-7.289-.595-13.465-7.554-13.487-15.2a15.02,15.02,0,0,1,.4-3.567,12.858,12.858,0,0,1,2.492-5.054,12.422,12.422,0,0,1,4.473-3.528.85.85,0,1,0-.686-1.555,13.983,13.983,0,0,0-5.106,4.011,14.572,14.572,0,0,0-2.825,5.727,16.711,16.711,0,0,0-.45,3.971c.024,8.243,6.521,15.77,14.343,16.809a2.532,2.532,0,0,0-.2.983Zm.68,1.36a.68.68,0,0,0,.68-.68v-1.334a1.182,1.182,0,0,1,.377-.863c.172.005.344.011.518.011.353,0,.711-.015,1.072-.037a1.183,1.183,0,0,1,.408.889v1.334a.68.68,0,0,0,.68.68h4.6a1.475,1.475,0,1,1,0,2.951h-12.93a1.475,1.475,0,0,1,0-2.951Z" transform="translate(-518.646 -717.141)" fill="#fff"/>
    </g>
  </g>
</svg>
