<svg xmlns="http://www.w3.org/2000/svg" width="66" height="66" viewBox="0 0 66 66">
  <g id="Grupo_3504" data-name="Grupo 3504" transform="translate(-500 -1397)">
    <circle id="Elipse_47" data-name="Elipse 47" cx="33" cy="33" r="33" transform="translate(500 1397)" fill="#8cbd28"/>
    <g id="Grupo_3497" data-name="Grupo 3497" transform="translate(516.969 1412.019)">
      <path id="Trazado_4097" data-name="Trazado 4097" d="M734.419,502.452a.569.569,0,0,0-1.062.411L735,507.117c.006.016.017.028.024.043l-1.212,1.212-1.488-3.964a.569.569,0,1,0-1.066.4l1.646,4.386a.548.548,0,0,0,.031.054l-2.875,2.875a13.586,13.586,0,1,0,.806.805l2.555-2.555a.564.564,0,0,0,.4.237l5.347.588c.021,0,.042,0,.063,0a.57.57,0,0,0,.061-1.136l-5.014-.551,1.47-1.47a.563.563,0,0,0,.073.016l5.347.588a.6.6,0,0,0,.063,0,.57.57,0,0,0,.062-1.136l-4.519-.5,2.745-2.744a.57.57,0,1,0-.805-.805l-2.815,2.815Zm-1.1,19.657a12.449,12.449,0,1,1-4.058-9.181l-2.687,2.687a8.654,8.654,0,1,0,.805.805l2.687-2.687A12.387,12.387,0,0,1,733.318,522.109Zm-12.837.4a.569.569,0,0,0,.805,0l1.754-1.754a2.56,2.56,0,1,1-.806-.8l-1.754,1.753A.569.569,0,0,0,720.481,522.512Zm2.572-3.377a3.7,3.7,0,1,0,.805.8l2.713-2.713a7.517,7.517,0,1,1-.806-.805Z" transform="translate(-707.311 -502.089)" fill="#fff"/>
    </g>
  </g>
</svg>
