<svg xmlns="http://www.w3.org/2000/svg" width="66" height="66" viewBox="0 0 66 66">
  <g id="Grupo_3505" data-name="Grupo 3505" transform="translate(-899 -1398)">
    <circle id="Elipse_49" data-name="Elipse 49" cx="33" cy="33" r="33" transform="translate(899 1398)" fill="#8cbd28"/>
    <g id="Grupo_3496" data-name="Grupo 3496" transform="translate(921.248 1408.833)">
      <path id="Trazado_4136" data-name="Trazado 4136" d="M126.98,323.6a14.748,14.748,0,0,0,.446,3.791A52.752,52.752,0,0,0,130.26,335a2.042,2.042,0,0,0-.378,1.158,2.037,2.037,0,0,1,0,2.746,2.082,2.082,0,0,0,.661,1.532,2.05,2.05,0,0,0-.479,1.3,2.266,2.266,0,0,0,2.317,2.192l8.374.11h.033a2.431,2.431,0,0,0,1.694-.672,6.1,6.1,0,0,1,.455-4.29,2.039,2.039,0,0,1,0-2.745,2.06,2.06,0,0,0-.526-1.388,52.359,52.359,0,0,0,2.806-7.551,14.736,14.736,0,0,0,.445-3.788,9.341,9.341,0,0,0-18.682,0Zm14.515,18.75a.963.963,0,0,1-.721.27l-8.375-.11a.859.859,0,0,1-.921-.764.779.779,0,0,1,.633-.7.707.707,0,0,0-.066-1.38.829.829,0,0,1-.75-.747.774.774,0,0,1,.593-.686.707.707,0,0,0,.006-1.348.788.788,0,0,1-.6-.711.612.612,0,0,1,.106-.334h9.914a.669.669,0,0,1,.208.472.772.772,0,0,1-.592.685.707.707,0,0,0-.007,1.349.786.786,0,0,1,.6.712.776.776,0,0,1-.632.7.707.707,0,0,0,.065,1.381.829.829,0,0,1,.749.747A.662.662,0,0,1,141.495,342.349Zm-5.174-26.677a7.936,7.936,0,0,1,7.927,7.927,13.443,13.443,0,0,1-.405,3.453,52.1,52.1,0,0,1-2.753,7.373h-9.537a52.154,52.154,0,0,1-2.753-7.37,13.468,13.468,0,0,1-.405-3.456A7.936,7.936,0,0,1,136.321,315.672Z" transform="translate(-125.063 -303.982)" fill="#fff"/>
      <path id="Trazado_4137" data-name="Trazado 4137" d="M123.03,294.027a.824.824,0,0,0-1.295,1.021l4.216,5.354a.829.829,0,0,0,.648.314h.029a.824.824,0,0,0,.619-1.334Zm3.641,5.956a.119.119,0,0,1-.069.026.11.11,0,0,1-.1-.045l-4.216-5.354a.115.115,0,0,1-.024-.086.118.118,0,0,1,.045-.079.11.11,0,0,1,.071-.025h.014a.121.121,0,0,1,.079.044l4.216,5.353a.115.115,0,0,1,.024.086A.117.117,0,0,1,126.671,299.982Z" transform="translate(-121.558 -290.699)" fill="#fff"/>
      <path id="Trazado_4138" data-name="Trazado 4138" d="M168.258,300.627h0a.815.815,0,0,0,.455.139h.029a.826.826,0,0,0,.659-.368l3.477-5.23a.824.824,0,1,0-1.373-.913l-3.477,5.23a.824.824,0,0,0,.229,1.142Zm.359-.751,3.477-5.231a.116.116,0,0,1,.074-.049.117.117,0,0,1,.087.017.119.119,0,0,1,.051.075.112.112,0,0,1-.017.088l-3.477,5.231a.117.117,0,0,1-.094.052.13.13,0,0,1-.068-.019.118.118,0,0,1-.05-.075A.117.117,0,0,1,168.617,299.876Z" transform="translate(-151.512 -290.811)" fill="#fff"/>
      <path id="Trazado_4139" data-name="Trazado 4139" d="M151.478,293.782h.062a.829.829,0,0,0,.8-.789l.293-6.947a.824.824,0,0,0-.788-.858.823.823,0,0,0-.86.789l-.292,6.947a.823.823,0,0,0,.788.859Zm-.083-.829.292-6.947a.12.12,0,0,1,.038-.083.124.124,0,0,1,.084-.03.115.115,0,0,1,.081.038.119.119,0,0,1,.031.085l-.293,6.946a.119.119,0,0,1-.117.113h-.006a.117.117,0,0,1-.112-.122Z" transform="translate(-140.391 -285.188)" fill="#fff"/>
      <path id="Trazado_4140" data-name="Trazado 4140" d="M137.916,327.9h0a.782.782,0,0,0,.825-.722,3.262,3.262,0,0,1,.093-.594,2.737,2.737,0,0,1,2.175-1.978,3.615,3.615,0,0,1,.691-.1.776.776,0,0,0-.034-1.551,4.426,4.426,0,0,0-4.473,4.123A.777.777,0,0,0,137.916,327.9Z" transform="translate(-131.665 -309.6)" fill="#fff"/>
    </g>
  </g>
</svg>
