<svg xmlns="http://www.w3.org/2000/svg" width="35.65" height="47.124" viewBox="0 0 35.65 47.124">
  <g id="Grupo_626" data-name="Grupo 626" transform="translate(-15394.167 -890.623)">
    <path id="Trazado_4021" data-name="Trazado 4021" d="M750.66,35.248h-8.509v-.575a1.175,1.175,0,0,0-1.245-1.051H729.914a1.173,1.173,0,0,0-1.238,1.051v.575h-8.417a2.574,2.574,0,0,0-2.674,2.483V78.262a2.574,2.574,0,0,0,2.674,2.484h30.4a2.548,2.548,0,0,0,2.575-2.484V37.731a2.548,2.548,0,0,0-2.575-2.483Z" transform="translate(14676.582 857.001)" fill="#727270"/>
    <path id="Trazado_4022" data-name="Trazado 4022" d="M750.278,77.973H720.549V38.02h8.127v.286a1.183,1.183,0,0,0,1.238,1.147h10.992a1.185,1.185,0,0,0,1.245-1.147V38.02h8.127Z" transform="translate(14676.582 857.001)" fill="#fefefe"/>
    <path id="Trazado_4023" data-name="Trazado 4023" d="M730.968,54.937a2.582,2.582,0,1,0-2.581,2.582,2.57,2.57,0,0,0,2.581-2.582Z" transform="translate(14676.582 857.001)" fill="#727270"/>
    <path id="Trazado_4024" data-name="Trazado 4024" d="M743.1,53.5h-8.791a1.408,1.408,0,0,0-1.436,1.433,1.432,1.432,0,0,0,1.436,1.529H743.1a1.506,1.506,0,0,0,1.528-1.529A1.488,1.488,0,0,0,743.1,53.5Z" transform="translate(14676.582 857.001)" fill="#006f3c"/>
    <path id="Trazado_4025" data-name="Trazado 4025" d="M730.968,62.774a2.582,2.582,0,1,0-2.581,2.582,2.569,2.569,0,0,0,2.581-2.582Z" transform="translate(14676.582 857.001)" fill="#727270"/>
    <path id="Trazado_4026" data-name="Trazado 4026" d="M743.1,61.342h-8.791a1.407,1.407,0,0,0-1.436,1.432,1.435,1.435,0,0,0,1.436,1.532H743.1a1.509,1.509,0,0,0,1.528-1.532,1.488,1.488,0,0,0-1.528-1.432Z" transform="translate(14676.582 857.001)" fill="#006f3c"/>
    <path id="Trazado_4027" data-name="Trazado 4027" d="M730.968,47.673a2.582,2.582,0,1,0-2.581,2.581,2.57,2.57,0,0,0,2.581-2.581Z" transform="translate(14676.582 857.001)" fill="#727270"/>
    <path id="Trazado_4028" data-name="Trazado 4028" d="M730.968,70.423A2.582,2.582,0,1,0,728.387,73a2.57,2.57,0,0,0,2.581-2.579Z" transform="translate(14676.582 857.001)" fill="#727270"/>
    <path id="Trazado_4029" data-name="Trazado 4029" d="M743.1,68.893h-8.791a1.432,1.432,0,0,0-1.436,1.53,1.407,1.407,0,0,0,1.436,1.433H743.1a1.488,1.488,0,0,0,1.528-1.433,1.506,1.506,0,0,0-1.528-1.53Z" transform="translate(14676.582 857.001)" fill="#006f3c"/>
    <path id="Trazado_4030" data-name="Trazado 4030" d="M743.1,46.145h-8.791a1.432,1.432,0,0,0-1.436,1.528,1.409,1.409,0,0,0,1.436,1.434H743.1a1.49,1.49,0,0,0,1.528-1.434,1.507,1.507,0,0,0-1.528-1.528Z" transform="translate(14676.582 857.001)" fill="#006f3c"/>
  </g>
</svg>
