<svg xmlns="http://www.w3.org/2000/svg" width="62.13" height="53.34" viewBox="0 0 62.13 53.34">
  <g id="Grupo_630" data-name="Grupo 630" transform="translate(-1163.073 -593.347)">
    <path id="Trazado_3942" data-name="Trazado 3942" d="M202.188,173.846h-8.124l-5.45-9.367a1.392,1.392,0,0,0-1.241-.669h-10.9l-4.973-8.795,5.451-9.367a1.424,1.424,0,0,0-.574-1.912,1.4,1.4,0,0,0-1.913.478l-5.447,9.464H158.984l-5.45-9.464a1.393,1.393,0,1,0-2.388,1.434l5.352,9.367-5.352,9.464a1.287,1.287,0,0,0,0,1.432l5.352,9.369-4.97,8.7h-8.6a1.434,1.434,0,0,0,0,2.868h8.6l5.447,9.368a1.214,1.214,0,0,0,1.244.669H169.88a1.393,1.393,0,0,0,1.242-.669l5.354-9.368h10.9a1.488,1.488,0,0,0,1.241-.764l5.45-9.368h8.124a1.434,1.434,0,0,0,0-2.867Z" transform="translate(1021.582 449.805)" fill="#727270"/>
    <path id="Trazado_3943" data-name="Trazado 3943" d="M158.984,156.449H169.02l5.065,8.7-5.065,8.7H158.984l-5.065-8.7Z" transform="translate(1021.582 449.805)" fill="#006f3c"/>
    <path id="Trazado_3944" data-name="Trazado 3944" d="M169.02,194.109H158.984l-5.065-8.7,5.065-8.7H169.02l5.065,8.7Z" transform="translate(1021.582 449.805)" fill="#006f3c"/>
  </g>
</svg>
