<svg xmlns="http://www.w3.org/2000/svg" width="40.5" height="31.501" viewBox="0 0 40.5 31.501">
  <path id="Icon_awesome-glasses" data-name="Icon awesome-glasses" d="M40.366,19.714,37.178,6.937a6.184,6.184,0,0,0-7.959-4.369l-1.072.357a1.124,1.124,0,0,0-.712,1.423l.356,1.067a1.125,1.125,0,0,0,1.422.712l.927-.309a3.007,3.007,0,0,1,2.332.122A2.786,2.786,0,0,1,33.9,7.755l2.7,10.815a19.459,19.459,0,0,0-5.709-.876,18.443,18.443,0,0,0-8.075,1.88H17.678A18.425,18.425,0,0,0,9.6,17.694a19.46,19.46,0,0,0-5.71.876L6.6,7.754A2.784,2.784,0,0,1,8.029,5.939a3.005,3.005,0,0,1,2.331-.122l.926.309a1.125,1.125,0,0,0,1.422-.712l.356-1.067a1.124,1.124,0,0,0-.712-1.423L11.28,2.567A6.184,6.184,0,0,0,3.322,6.936L.134,19.714A4.515,4.515,0,0,0,0,20.8v4.939A8.054,8.054,0,0,0,8.1,33.75h2.61a8.063,8.063,0,0,0,8.078-7.409l.206-2.716h2.514l.206,2.716A8.062,8.062,0,0,0,29.79,33.75H32.4a8.054,8.054,0,0,0,8.1-8.007V20.8A4.517,4.517,0,0,0,40.366,19.714ZM14.3,26a3.578,3.578,0,0,1-3.59,3.249H8.1a3.559,3.559,0,0,1-3.6-3.508V23.1a15.264,15.264,0,0,1,5.1-.908,13.8,13.8,0,0,1,4.917.908L14.3,26ZM36,25.743a3.558,3.558,0,0,1-3.6,3.507H29.79A3.577,3.577,0,0,1,26.2,26l-.22-2.9a13.8,13.8,0,0,1,4.918-.908A15.262,15.262,0,0,1,36,23.1v2.64Z" transform="translate(0 -2.249)" fill="#727270"/>
</svg>
