<svg xmlns="http://www.w3.org/2000/svg" width="187.307" height="63.22" viewBox="0 0 187.307 63.22">
  <g id="Grupo_613" data-name="Grupo 613" transform="translate(-213.845 -248.716)">
    <path id="Trazado_3829" data-name="Trazado 3829" d="M250.527,249.216H364.172l36.213,31.11-36.213,31.11H250.527l-35.919-31.11Z" transform="translate(0 0)" fill="#2d343e" stroke="#fff" stroke-width="1"/>
    <path id="Trazado_3830" data-name="Trazado 3830" d="M249.461,253.357H358.6l29.434,24.878-28.56,24.878H250.043l-29.288-24.878Z" transform="translate(3.103 2.091)" fill="#2d343e" stroke="#fff" stroke-width="1"/>
    <g id="Grupo_603" data-name="Grupo 603" transform="translate(250.273 265.703)">
      <g id="Grupo_602" data-name="Grupo 602">
        <path id="Trazado_3831" data-name="Trazado 3831" d="M244.807,288.6h-6.5V260.172h6.5Z" transform="translate(-238.309 -260.172)" fill="#fff"/>
        <path id="Trazado_3832" data-name="Trazado 3832" d="M267.775,288.6h-5.566L251.526,269.5h-.163V288.6h-5.036V260.172h7.027l9.3,16.7h.081v-16.7h5.038Z" transform="translate(-234.262 -260.172)" fill="#fff"/>
        <path id="Trazado_3833" data-name="Trazado 3833" d="M272.177,260.172c4.021,0,7.474.25,10.52,3.193A14.836,14.836,0,0,1,287,274.307a15.618,15.618,0,0,1-3.614,10.361c-2.763,3.109-6.174,3.938-10.115,3.938h-9.179V260.172Zm-1.585,23.087h2.194c2.721,0,4.468-.54,5.97-3.026A11.964,11.964,0,0,0,280.3,274.1a10.914,10.914,0,0,0-1.989-6.424c-1.5-1.989-3.169-2.28-5.485-2.28h-2.233Z" transform="translate(-225.294 -260.172)" fill="#fff"/>
        <path id="Trazado_3834" data-name="Trazado 3834" d="M303.956,277.373c0,3.107.041,6.341-2.274,8.662-2.235,2.28-5.524,2.984-8.571,2.984-2.925,0-6.3-.456-8.529-2.445-2.763-2.445-2.885-5.72-2.885-9.2v-17.2h7.068v17.2c0,1.326-.041,3.232.609,4.392.853,1.493,2.6,1.907,4.183,1.907,1.3,0,3.208-.414,4.021-1.533.894-1.285.772-3.274.772-4.766v-17.2h5.605Z" transform="translate(-216.407 -260.172)" fill="#fff"/>
        <path id="Trazado_3835" data-name="Trazado 3835" d="M306.368,288.6h-6.5V260.172h11.74c2.477,0,4.994.042,7.148,1.452a8.553,8.553,0,0,1,3.535,7.086,7.691,7.691,0,0,1-4.833,7.336l5.157,12.559h-7.229l-4.265-11.232h-4.752Zm0-16.122h3.574c1.339,0,2.8.123,3.98-.581a3.849,3.849,0,0,0,1.625-3.232,3.582,3.582,0,0,0-1.585-2.9c-1.1-.706-2.964-.539-4.183-.539h-3.411Z" transform="translate(-207.235 -260.172)" fill="#fff"/>
      </g>
    </g>
  </g>
</svg>
